<svg width="900" height="260" viewBox="0 0 900 260" xmlns="http://www.w3.org/2000/svg">
  <defs>
    <linearGradient id="bg" x1="0" y1="0" x2="900" y2="260" gradientUnits="userSpaceOnUse">
      <stop offset="0" stop-color="#15162A"/>
      <stop offset="1" stop-color="#1B1B2F"/>
    </linearGradient>
  </defs>
  <rect width="900" height="260" rx="28" fill="url(#bg)"/>

  <g transform="translate(75,55)">
    <animateTransform attributeName="transform" type="translate" values="75,55; 75,68; 75,55" dur="3.4s" repeatCount="indefinite"/>
    <text font-family="Space Grotesk, Consolas, monospace" font-size="28" fill="#A8D8FF" text-anchor="middle">&lt;/&gt;</text>
  </g>

  <g transform="translate(130,195)">
    <animateTransform attributeName="transform" type="translate" values="130,195; 130,180; 130,195" dur="4s" repeatCount="indefinite"/>
    <text font-family="Space Grotesk, Consolas, monospace" font-size="24" fill="#FFB8D9" text-anchor="middle">{ }</text>
  </g>

  <g transform="translate(58,140)">
    <animateTransform attributeName="transform" type="translate" values="58,140; 58,152; 58,140" dur="3.8s" repeatCount="indefinite"/>
    <ellipse cx="0" cy="-10" rx="13" ry="5" fill="none" stroke="#C9B8FF" stroke-width="2"/>
    <path d="M -13,-10 L -13,10 A 13,5 0 0 0 13,10 L 13,-10" fill="none" stroke="#C9B8FF" stroke-width="2"/>
    <ellipse cx="0" cy="0" rx="13" ry="5" fill="none" stroke="#C9B8FF" stroke-width="1.5" opacity="0.6"/>
  </g>

  <g transform="translate(820,60)">
    <animateTransform attributeName="transform" type="translate" values="820,60; 820,73; 820,60" dur="3.6s" repeatCount="indefinite"/>
    <rect x="-16" y="-12" width="32" height="24" rx="4" fill="none" stroke="#A8D8FF" stroke-width="2"/>
    <circle cx="-10" cy="-6" r="1.6" fill="#A8D8FF"/>
    <circle cx="-4" cy="-6" r="1.6" fill="#A8D8FF"/>
    <circle cx="2" cy="-6" r="1.6" fill="#A8D8FF"/>
  </g>

  <g transform="translate(780,155)">
    <animateTransform attributeName="transform" type="translate" values="780,155; 780,140; 780,155" dur="4.2s" repeatCount="indefinite"/>
    <text font-family="Space Grotesk, Consolas, monospace" font-size="18" fill="#FFB8D9" text-anchor="middle">01</text>
  </g>

  <g transform="translate(845,205)">
    <animateTransform attributeName="transform" type="translate" values="845,205; 845,218; 845,205" dur="3.2s" repeatCount="indefinite"/>
    <circle r="12" fill="none" stroke="#C9B8FF" stroke-width="2"/>
    <line x1="-5" y1="0" x2="5" y2="0" stroke="#C9B8FF" stroke-width="2"/>
    <line x1="0" y1="-5" x2="0" y2="5" stroke="#C9B8FF" stroke-width="2"/>
  </g>

  <g transform="translate(855,115)">
    <animateTransform attributeName="transform" type="translate" values="855,115; 855,102; 855,115" dur="3.9s" repeatCount="indefinite"/>
    <path d="M -14,4 a8,8 0 0 1 2,-15.5 a11,11 0 0 1 21,3 a7,7 0 0 1 -1,12.5 z" fill="none" stroke="#A8D8FF" stroke-width="2"/>
  </g>

  <g transform="translate(45,95)">
    <animateTransform attributeName="transform" type="translate" values="45,95; 45,108; 45,95" dur="3.1s" repeatCount="indefinite"/>
    <text font-family="Space Grotesk, Consolas, monospace" font-size="16" fill="#FFB8D9" text-anchor="middle">git</text>
  </g>

  <text x="450" y="118" font-family="Space Grotesk, Verdana, sans-serif" font-size="16" fill="#C9B8FF" text-anchor="middle" letter-spacing="2">hi, i'm</text>
  <text x="450" y="160" font-family="Space Grotesk, Verdana, sans-serif" font-size="42" font-weight="700" fill="#EDE6F5" text-anchor="middle">nevin dabrah</text>
  <text x="450" y="190" font-family="Space Grotesk, Verdana, sans-serif" font-size="16" fill="#A8D8FF" text-anchor="middle" letter-spacing="1">cs &#65286; econ @ yale</text>
</svg>
